<svg width="1440" height="67" viewBox="0 0 1440 67" fill="none" xmlns="http://www.w3.org/2000/svg">
<line y1="33.5" x2="1440" y2="33.5" stroke="black" stroke-dasharray="13 13"/>
<path d="M734.098 39.8567C733.096 36.2242 730.93 33.0208 727.932 30.7379C724.934 28.455 721.27 27.2188 717.502 27.2188C713.734 27.2188 710.069 28.455 707.072 30.7379C704.074 33.0208 701.908 36.2242 700.905 39.8567L698.518 48.5131C698.089 50.0673 698.025 51.6995 698.331 53.2825C698.636 54.8656 699.304 56.3566 700.281 57.6393C701.257 58.922 702.517 59.9618 703.962 60.6775C705.407 61.3933 706.997 61.7657 708.609 61.7657H726.394C728.006 61.7657 729.597 61.3933 731.042 60.6775C732.486 59.9618 733.746 58.922 734.723 57.6393C735.7 56.3566 736.367 54.8656 736.673 53.2825C736.979 51.6995 736.915 50.0673 736.486 48.5131L734.098 39.8567ZM731.392 55.1018C730.808 55.8743 730.053 56.5002 729.185 56.9301C728.318 57.3599 727.362 57.5818 726.394 57.5782H708.609C707.642 57.5782 706.688 57.3548 705.821 56.9253C704.954 56.4959 704.198 55.872 703.612 55.1024C703.026 54.3327 702.625 53.4381 702.442 52.4883C702.259 51.5385 702.297 50.5591 702.554 49.6265L704.942 40.9703C705.7 38.2214 707.34 35.7971 709.608 34.0695C711.877 32.3419 714.65 31.4063 717.502 31.4063C720.353 31.4063 723.126 32.3419 725.395 34.0695C727.664 35.7971 729.303 38.2214 730.061 40.9703L732.449 49.6265C732.71 50.5587 732.751 51.5389 732.567 52.4893C732.383 53.4398 731.981 54.3344 731.392 55.1023V55.1018Z" fill="#4F3F37"/>
<path d="M703.12 30.138C703.484 27.8611 703.001 25.4236 701.759 23.2728C700.517 21.122 698.647 19.4848 696.494 18.6618C694.187 17.781 691.835 17.9213 689.868 19.0566C685.957 21.3147 684.927 26.88 687.574 31.4627C688.816 33.6135 690.685 35.2511 692.839 36.0737C693.793 36.4455 694.807 36.6393 695.831 36.6457C697.106 36.6503 698.36 36.3167 699.465 35.6788C701.431 34.5433 702.729 32.5756 703.12 30.138ZM698.985 29.4762C698.798 30.6446 698.225 31.5594 697.371 32.0523C696.517 32.5451 695.439 32.5838 694.333 32.1618C693.075 31.6814 691.962 30.6895 691.2 29.369C689.734 26.8303 690.083 23.7682 691.961 22.6831C692.434 22.4151 692.969 22.277 693.512 22.2829C694.021 22.2882 694.525 22.3865 694.999 22.5731C696.257 23.0537 697.37 24.0455 698.132 25.366C698.895 26.6865 699.197 28.1465 698.985 29.4762Z" fill="#4F3F37"/>
<path d="M703.574 21.462C705.06 22.6506 706.758 23.2695 708.475 23.2694C708.99 23.2693 709.502 23.2139 710.005 23.1044C714.418 22.1451 717.094 17.1578 715.97 11.9869C715.442 9.55993 714.16 7.43072 712.359 5.99114C710.431 4.44961 708.147 3.86611 705.928 4.34872C701.515 5.30792 698.84 10.2952 699.963 15.4661C700.491 17.8932 701.773 20.0224 703.574 21.462ZM706.817 8.44069C707.021 8.39682 707.228 8.37488 707.437 8.37526C708.215 8.37526 709.016 8.67977 709.745 9.26262C710.796 10.1034 711.554 11.387 711.878 12.8771C712.5 15.7423 711.236 18.5522 709.116 19.0131C708.152 19.2225 707.113 18.9309 706.189 18.1919C705.137 17.351 704.379 16.0674 704.056 14.5775C703.433 11.7115 704.697 8.90158 706.817 8.44069Z" fill="#4F3F37"/>
<path d="M745.132 19.0566C743.165 17.9213 740.812 17.781 738.506 18.6618C736.352 19.4845 734.483 21.122 733.241 23.2728C731.999 25.4236 731.516 27.8616 731.88 30.138C732.27 32.5756 733.568 34.5433 735.535 35.6788C736.64 36.3167 737.894 36.6504 739.169 36.6457C740.193 36.6393 741.207 36.4455 742.161 36.0737C744.314 35.2511 746.184 33.6135 747.426 31.4627C750.072 26.88 749.043 21.3147 745.132 19.0566ZM743.8 29.369C743.037 30.6895 741.925 31.6814 740.667 32.1618C739.562 32.5842 738.483 32.5453 737.629 32.0523C736.775 31.5592 736.203 30.6446 736.015 29.4762C735.802 28.1465 736.105 26.687 736.867 25.3672C737.63 24.0473 738.742 23.0549 740 22.5742C740.474 22.3875 740.978 22.289 741.488 22.2836C742.031 22.2777 742.566 22.4157 743.038 22.6838C744.917 23.7679 745.266 26.8297 743.8 29.369Z" fill="#4F3F37"/>
<path d="M724.998 23.1042C725.501 23.2137 726.014 23.269 726.528 23.2692C728.245 23.2692 729.943 22.6504 731.43 21.4618C733.23 20.0223 734.512 17.893 735.04 15.466C736.164 10.2951 733.488 5.30783 729.075 4.34863C726.856 3.86628 724.572 4.44939 722.644 5.99105C720.843 7.4305 719.561 9.55984 719.034 11.9866C717.91 17.1575 720.585 22.1448 724.998 23.1042ZM723.126 12.8762C723.45 11.3861 724.207 10.102 725.259 9.26174C725.988 8.6789 726.788 8.37439 727.567 8.37439C727.775 8.37401 727.983 8.39594 728.186 8.43982C730.306 8.9007 731.571 11.7113 730.948 14.5758C730.624 16.0659 729.867 17.35 728.815 18.1904C727.891 18.9292 726.852 19.2208 725.888 19.0116C723.768 18.5513 722.503 15.741 723.126 12.8762Z" fill="#4F3F37"/>
</svg>
